<svg version="1.2" xmlns="http://www.w3.org/2000/svg" viewBox="0 0 270 184" width="270" height="184">
	<title>vlogo</title>
	<style>
		.s0 { fill: #000000 } 
	</style>
	<g>
		<path class="s0" d="m153.9 32.1c-0.7 0.4-1 1.1-0.7 1.5 0.4 0.4 0.3 1.5-0.3 2.6-2.3 4.3-9.1 32.7-10.9 45.3-1.5 11.1-1.9 12.7-3.1 11.9-1.2-0.7-5.6-10.1-14.6-31.4-3.6-8.5-7.3-16.5-8.1-17.8-3.4-5.2-10.2-3.1-10.2 3.2 0 2.5 11.3 28.3 16.2 37.1 0.6 1.1 2.5 4.5 4.1 7.5 1.7 3 3.9 6.8 5 8.3 2.2 3.2 5.7 11.8 6.4 16 0.3 1.5 1 3 1.5 3.3 1.3 0.8 2.8-1.4 2.8-4 0-1.1 0.6-2.7 1.4-3.5 2-2.3 4.3-11.1 6.1-23 2.5-17 4.4-23.3 7.6-25.9 1.5-1.2 2.6-2.8 2.3-3.5-0.2-0.7 0.7-4.4 2.2-8.2 1.4-3.9 2.8-8.1 3.1-9.5 0.9-5.2-6.9-12.4-10.8-9.9z"/>
		<path class="s0" d="m84.6 39.3c-8.4 8.7-26.6 30.6-26.6 32.1 0 3.4 16.8 20.4 34.1 34.5l3 2.4 2.1-2c3.5-3.5 1.7-6.2-11.2-17.8-6.6-5.9-13.2-12.3-14.7-14.2l-2.7-3.5 11.6-11.3c11.1-10.7 15.8-16.4 15.8-19.3 0-1.7-3.7-5.2-5.6-5.2-0.9 0-3.5 1.9-5.8 4.3z"/>
		<path class="s0" d="m175.4 42.5c-1.8 1.9-2.3 3.1-1.9 4.8 0.8 2.6 10.5 12.8 18.7 19.8l5.8 4.8-8.2 8.6c-4.5 4.8-10.1 10-12.5 11.6-5.1 3.5-6.1 6.6-4 11.7 0.9 2 1.8 4.8 1.9 6.2 0.5 4.1 3.1 3 4.1-1.8 0.7-3.8 1.3-4.5 6-6.8 3.3-1.7 9.2-6.7 16-13.4 9.8-9.8 10.7-11 10.7-14.4 0-4.3 0.1-4.2-16.5-18.6-6-5.2-12.2-10.7-13.7-12.3-1.6-1.5-3.1-2.7-3.4-2.7-0.3 0-1.6 1.1-3 2.5z"/>
		<path class="s0" d="m82 151.3v12.3l8.6 0.2c11.7 0.3 12.4-0.2 12.4-8.8 0-8.3-0.8-9-9.9-9h-6.1v-3.5c0-3.1-0.3-3.5-2.5-3.5h-2.5zm16.5 3.7v5.5l-5.7 0.3-5.8 0.3v-6.1-6.1l5.8 0.3 5.7 0.3z"/>
		<path class="s0" d="m200.7 139.6c-0.4 0.4-0.7 1.6-0.7 2.6 0 1.4 0.6 1.9 2.3 1.6 1.4-0.2 2.2-1 2.2-2.3 0-2-2.5-3.2-3.8-1.9z"/>
		<path class="s0" d="m15.1 151.2c2.2 6.2 4.4 11.7 4.8 12.1 0.5 0.5 2.1 0.7 3.7 0.5 2.5-0.3 3-1.1 5.9-9.8l3.2-9.5 3.2 9.7c3.2 9.7 3.3 9.8 6.5 9.8 3.3 0 3.3-0.1 7.4-10.8 2.3-6 4.2-11.4 4.2-12 0-0.7-1.1-1.2-2.5-1.2-2.2 0-2.7 0.9-5.7 10.2l-3.2 10.2-3.4-10.2c-3.3-10.1-3.4-10.2-6.6-10.2h-3.3l-3 10.2-3 10.2-3.4-10c-3.1-9-3.6-9.9-6.1-10.2l-2.7-0.3z"/>
		<path class="s0" d="m118 151.9v12.1h10.3c6.2 0 11.2-0.5 12.7-1.3 2.3-1.2 2.5-1.8 2.8-9.7 0.4-12.3 0.2-12.4-14.2-12.8l-11.6-0.4zm20.5 0.1v7.5l-7.7 0.3-7.8 0.3v-8.1-8.1l7.8 0.3 7.7 0.3z"/>
		<path class="s0" d="m58.8 147.1c-2.7 1.5-2.6 14.4 0.1 15.9 2.1 1.1 14.9 1.4 17.5 0.4 3.3-1.3 0.3-2.4-6.3-2.4-6.2 0-9.1-1-9.1-3.2 0-0.4 3.6-0.8 8-0.8h8v-4.5c0-3.4-0.5-4.7-1.9-5.5-2.5-1.3-14.1-1.3-16.3 0.1zm14 4.6c0.3 2.1 0 2.3-5.2 2.3-5.7 0-7-0.7-6-3.5 0.5-1.2 1.8-1.5 5.8-1.3 4.4 0.3 5.1 0.6 5.4 2.5z"/>
		<path class="s0" d="m150.8 147.1c-2.7 1.5-2.6 14.4 0.1 15.9 2.1 1.1 14.9 1.4 17.5 0.4 3.3-1.3 0.3-2.4-6.3-2.4-6.2 0-9.1-1-9.1-3.2 0-0.4 3.6-0.8 8-0.8h8v-4.5c0-3.4-0.5-4.7-1.9-5.5-2.5-1.3-14.1-1.3-16.3 0.1zm14 4.6c0.3 2.1 0 2.3-5.2 2.3-5.7 0-7-0.7-6-3.5 0.5-1.2 1.8-1.5 5.8-1.3 4.4 0.3 5.1 0.6 5.4 2.5z"/>
		<path class="s0" d="m175.7 147.3c-1.3 0.9-1.8 2.3-1.5 4.7l0.3 3.5 7.5 0.5c6.7 0.4 7.5 0.7 7.5 2.5 0 1.8-0.7 2-7.5 2.1-5.6 0.1-7.5 0.5-7.5 1.5 0 1.1 2 1.5 8.2 1.7 9.7 0.3 12.3-0.7 12.3-4.8 0-4.7-2.2-6-10.1-6-6.2 0-7-0.2-6.7-1.8 0.3-1.4 1.6-1.7 8.1-2 5.6-0.2 7.7-0.6 7.4-1.5-0.6-1.8-15.7-2.2-18-0.4z"/>
		<path class="s0" d="m200 155c0 8.3 0.1 9 2 9 1.9 0 2-0.7 2-9 0-8.3-0.1-9-2-9-1.9 0-2 0.7-2 9z"/>
		<path class="s0" d="m211.8 147.1c-1.4 0.8-1.8 2.4-1.8 7.9 0 8.5 1.3 9.6 10.2 8.6 5.7-0.6 5.9-0.5 5.6 1.7-0.3 2.1-0.8 2.2-7.8 2.2-7.2 0-10.3 1.1-7.7 2.7 2.3 1.5 16.1 0.9 18.5-0.8 2-1.4 2.2-2.3 2.2-12.5v-10.9h-8.7c-4.9 0-9.6 0.5-10.5 1.1zm14.2 7.9v6.1l-5.7-0.3-5.8-0.3-0.3-4.4c-0.5-6.6 0-7.1 6.3-7.1h5.5z"/>
		<path class="s0" d="m236 155.2c0 8.7 0 8.8 2.5 8.8 2.4 0 2.5-0.2 2.5-7.5v-7.6l5.8 0.3 5.7 0.3 0.3 7.2c0.3 6.5 0.5 7.3 2.2 7.3 1.8 0 2-0.7 2-8 0-9.7-0.3-10-12.3-9.7l-8.7 0.2z"/>
	</g>
</svg>