<?xml version="1.0" standalone="no"?>
<!DOCTYPE svg PUBLIC "-//W3C//DTD SVG 20010904//EN"
 "http://www.w3.org/TR/2001/REC-SVG-20010904/DTD/svg10.dtd">
<svg version="1.0" xmlns="http://www.w3.org/2000/svg"
 width="1024.000000pt" height="184.000000pt" viewBox="0 0 1024.000000 184.000000"
 preserveAspectRatio="xMidYMid meet">

<g transform="translate(0.000000,184.000000) scale(0.100000,-0.100000)"
fill="#000000" stroke="none">
<path d="M5309 1519 c-7 -4 -10 -11 -7 -15 4 -4 3 -15 -3 -26 -23 -43 -91
-327 -109 -453 -15 -111 -19 -127 -31 -119 -12 7 -56 101 -146 314 -36 85 -73
165 -81 178 -34 52 -102 31 -102 -32 0 -25 113 -283 162 -371 6 -11 25 -45 41
-75 17 -30 39 -68 50 -83 22 -32 57 -118 64 -160 3 -15 10 -30 15 -33 13 -8
28 14 28 40 0 11 6 27 14 35 20 23 43 111 61 230 25 170 44 233 76 259 15 12
26 28 23 35 -2 7 7 44 22 82 14 39 28 81 31 95 9 52 -69 124 -108 99z"/>
<path d="M4616 1447 c-84 -87 -266 -306 -266 -321 0 -34 168 -204 341 -345
l30 -24 21 20 c35 35 17 62 -112 178 -66 59 -132 123 -147 142 l-27 35 116
113 c111 107 158 164 158 193 0 17 -37 52 -56 52 -9 0 -35 -19 -58 -43z"/>
<path d="M5524 1415 c-18 -19 -23 -31 -19 -48 8 -26 105 -128 187 -198 l58
-48 -82 -86 c-45 -48 -101 -100 -125 -116 -51 -35 -61 -66 -40 -117 9 -20 18
-48 19 -62 5 -41 31 -30 41 18 7 38 13 45 60 68 33 17 92 67 160 134 98 98
107 110 107 144 0 43 1 42 -165 186 -60 52 -122 107 -137 123 -16 15 -31 27
-34 27 -3 0 -16 -11 -30 -25z"/>
<path d="M4590 327 l0 -123 86 -2 c117 -3 124 2 124 88 0 83 -8 90 -99 90
l-61 0 0 35 c0 31 -3 35 -25 35 l-25 0 0 -123z m165 -37 l0 -55 -57 -3 -58 -3
0 61 0 61 58 -3 57 -3 0 -55z"/>
<path d="M5777 444 c-4 -4 -7 -16 -7 -26 0 -14 6 -19 23 -16 14 2 22 10 22 23
0 20 -25 32 -38 19z"/>
<path d="M3921 328 c22 -62 44 -117 48 -121 5 -5 21 -7 37 -5 25 3 30 11 59
98 l32 95 32 -97 c32 -97 33 -98 65 -98 33 0 33 1 74 108 23 60 42 114 42 120
0 7 -11 12 -25 12 -22 0 -27 -9 -57 -102 l-32 -102 -34 102 c-33 101 -34 102
-66 102 l-33 0 -30 -102 -30 -102 -34 100 c-31 90 -36 99 -61 102 l-27 3 40
-113z"/>
<path d="M4950 321 l0 -121 103 0 c62 0 112 5 127 13 23 12 25 18 28 97 4 123
2 124 -142 128 l-116 4 0 -121z m205 -1 l0 -75 -77 -3 -78 -3 0 81 0 81 78 -3
77 -3 0 -75z"/>
<path d="M4358 369 c-27 -15 -26 -144 1 -159 21 -11 149 -14 175 -4 33 13 3
24 -63 24 -62 0 -91 10 -91 32 0 4 36 8 80 8 l80 0 0 45 c0 34 -5 47 -19 55
-25 13 -141 13 -163 -1z m140 -46 c3 -21 0 -23 -52 -23 -57 0 -70 7 -60 35 5
12 18 15 58 13 44 -3 51 -6 54 -25z"/>
<path d="M5278 369 c-27 -15 -26 -144 1 -159 21 -11 149 -14 175 -4 33 13 3
24 -63 24 -62 0 -91 10 -91 32 0 4 36 8 80 8 l80 0 0 45 c0 34 -5 47 -19 55
-25 13 -141 13 -163 -1z m140 -46 c3 -21 0 -23 -52 -23 -57 0 -70 7 -60 35 5
12 18 15 58 13 44 -3 51 -6 54 -25z"/>
<path d="M5527 367 c-13 -9 -18 -23 -15 -47 l3 -35 75 -5 c67 -4 75 -7 75 -25
0 -18 -7 -20 -75 -21 -56 -1 -75 -5 -75 -15 0 -11 20 -15 82 -17 97 -3 123 7
123 48 0 47 -22 60 -101 60 -62 0 -70 2 -67 18 3 14 16 17 81 20 56 2 77 6 74
15 -6 18 -157 22 -180 4z"/>
<path d="M5770 290 c0 -83 1 -90 20 -90 19 0 20 7 20 90 0 83 -1 90 -20 90
-19 0 -20 -7 -20 -90z"/>
<path d="M5888 369 c-14 -8 -18 -24 -18 -79 0 -85 13 -96 102 -86 57 6 59 5
56 -17 -3 -21 -8 -22 -78 -22 -72 0 -103 -11 -77 -27 23 -15 161 -9 185 8 20
14 22 23 22 125 l0 109 -87 0 c-49 0 -96 -5 -105 -11z m142 -79 l0 -61 -57 3
-58 3 -3 44 c-5 66 0 71 63 71 l55 0 0 -60z"/>
<path d="M6130 288 c0 -87 0 -88 25 -88 24 0 25 2 25 75 l0 76 58 -3 57 -3 3
-72 c3 -65 5 -73 22 -73 18 0 20 7 20 80 0 97 -3 100 -123 97 l-87 -2 0 -87z"/>
</g>
</svg>
